<svg xmlns="http://www.w3.org/2000/svg" xmlns:xlink="http://www.w3.org/1999/xlink" width="16" height="16" viewBox="0 0 4.233 4.233"><defs><linearGradient id="a"><stop offset="0" style="stop-color:#2185d0;stop-opacity:0"/><stop offset=".495" style="stop-color:#2185d0;stop-opacity:.48923996"/><stop offset="1" style="stop-color:#2185d0;stop-opacity:.63279623"/></linearGradient><linearGradient xlink:href="#b" id="c" x1="42519.285" x2="42575.336" y1="-7078.789" y2="-6966.931" gradientUnits="userSpaceOnUse"/><linearGradient id="b"><stop offset="0" style="stop-color:#81a1c1;stop-opacity:0"/><stop offset=".495" style="stop-color:#81a1c1;stop-opacity:.30000001"/><stop offset="1" style="stop-color:#81a1c1;stop-opacity:.30000001"/></linearGradient></defs><path d="M42519.285-7078.79a.76.568 0 0 0-.738.675l33.586 125.888a87.182 87.182 0 0 0 39.381-33.763l-71.565-92.52a.76.568 0 0 0-.664-.28z" style="font-variation-settings:normal;opacity:1;vector-effect:none;fill:url(#c);fill-opacity:1;stroke:none;stroke-width:3.67846;stroke-linecap:butt;stroke-linejoin:miter;stroke-miterlimit:2;stroke-dasharray:none;stroke-dashoffset:0;stroke-opacity:1;paint-order:stroke markers fill;stop-color:#000;stop-opacity:1" transform="matrix(.02428 0 0 .02428 -1030.156 172.97)"/><path d="M11249.461-1883.696c-12.74 0-23.067 10.327-23.067 23.067 0 4.333 1.22 8.58 3.522 12.251l19.232-24.863c.138-.18.486-.18.624 0l19.233 24.864a23.068 23.068 0 0 0 3.523-12.252c0-12.74-10.327-23.067-23.067-23.067z" style="opacity:1;fill:#81a1c1;fill-opacity:1;stroke-width:17.0055;paint-order:markers fill stroke;stop-color:#000" transform="translate(-1030.156 172.97) scale(.09176)"/></svg>