<svg version="1" xmlns="http://www.w3.org/2000/svg" width="666.667" height="666.667" viewBox="0 0 500.000000 500.000000"><path d="M376 55.8c-10.4 4.5-20.3 11.3-22.7 15.5-1.6 3.1-.8 7 3.1 13.9l3.4 6.1-3.3 4.6c-1.8 2.5-4.6 7.3-6.3 10.7l-3.1 6.1-7.6.1c-13.2.2-14.7 2.4-14.9 21.7-.1 19.7 1.8 22.5 15.7 22.5h7.4l1.7 4.4c.9 2.3 3.6 7.2 6 10.8l4.4 6.6-3.6 5.8c-2.4 4.1-3.5 7.1-3.5 9.8-.1 3.5.5 4.5 4.9 8.3 6.5 5.8 21.4 13.3 26.4 13.3 4.4 0 6.4-1.7 11.3-10 2.1-3.4 3.9-5.3 4.8-5.1.8.2 6.4.4 12.4.3l11-.1 3 5.5c3.9 7.3 6.5 9.6 10.8 9.6 6.3 0 26.9-11.9 30.2-17.4 2.2-3.8 1.4-7.7-2.9-14.8l-3.4-5.4 2.8-3.6c1.6-2 4.5-6.8 6.5-10.8l3.6-7.2h7.5c4.1 0 8.4-.5 9.5-1 3.9-2.1 5.3-6.8 5.6-19.1.5-20.1-2-24-15-24.1H474l-3.5-7.2c-1.9-3.9-4.8-8.7-6.3-10.6l-2.9-3.4 3.8-7.1c4.3-7.7 4.6-9.3 2.5-13.4-2.4-4.6-17.1-13.9-27-17.1-5.6-1.8-9.2.4-13.8 8.3l-3.6 6.2h-12.7l-12.7-.1-3.5-6.2c-3.3-5.8-7.2-9.2-10.5-9.2-.7 0-4.2 1.3-7.8 2.8zm49.1 54.7c15.2 7.8 18.1 31.3 5.4 44-5.7 5.7-11.6 8-20.5 8-6.7 0-8.2-.4-13.8-3.4-6.6-3.6-9.8-7.6-12-15.1-3.9-12.9.3-25.4 10.9-32.4 8.7-5.8 19.8-6.2 30-1.1zM144.5 78.5c-7 1.2-9.7 2.1-12.5 4.3-6 4.9-6.9 8.1-7.2 25.2l-.3 15.2-8.7 3.8c-9.5 4.1-20.9 10.9-28.8 17.1l-5 3.9-4-2.5c-2.2-1.4-4.2-2.5-4.4-2.5-.3 0-3.8-2-7.9-4.4-10.7-6.6-18.5-7.6-25.1-3.2-5.5 3.5-22.1 25.5-29.6 39.1-9.9 18-10.6 26.8-2.7 34.7 1.3 1.3 8.5 5.4 16 9.2 11.8 6 13.6 7.2 13.1 9-2.4 10.2-2.5 32.8-.1 46 .1.4-6.1 4.1-13.8 8-17.8 9.3-20 11.7-20 21.9 0 6.6.4 8 4.7 16.4 5.5 10.9 10.4 18.3 21.1 32.1 8.6 11 12 13.7 18.4 14.8 5.4.8 9.1-.5 22.8-8.3l11.4-6.5 8.8 6.4c9.1 6.5 21.2 13.2 29.5 16.3l4.6 1.7.1 15c.1 10.2.6 16 1.5 18.2 1.6 3.8 6 8.3 9.5 9.7 12 4.8 58.4 4.4 67.9-.5 3.1-1.6 6.4-5 8.3-8.6.9-1.7 1.4-7.3 1.5-17.8.1-8.5.5-15.6.7-15.9.3-.2 2.9-1.4 5.9-2.7 9.5-3.9 21.1-10.4 28.6-16.1 4-3 7.5-5.5 7.8-5.5.2 0 6 3.2 12.8 7.1 21.4 12.2 25.2 11.3 41.8-9.7 12.7-16 23.6-35.5 24.5-43.8.6-5.2-1-10.6-4.2-14.4-1.3-1.5-8.6-5.8-16.4-9.7l-14.2-7 .8-5c1-6.8 1-31.7 0-38.7l-.8-5.7 13.8-7c7.6-3.8 14.8-8 16-9.3 3.7-3.9 5.5-9.5 4.8-14.7-1.2-9.5-12.7-29.5-27.6-48.1-8.8-11-12-13.1-19.4-13.2-4.9-.1-6.6.6-16.7 6.2-6.2 3.5-12.2 6.9-13.2 7.6-1.7 1.1-2.6.8-7.5-3-10.2-7.7-27.8-17.5-34.4-19.1-1.5-.4-2.7-1-2.7-1.4-.1-.3-.2-7.4-.3-15.6-.3-16.3-1.2-19.6-6.6-24.3-5.2-4.4-9.8-5.2-34.6-5.7-13.5-.3-21.6 0-28 1zm43 118.4c13.6 4.8 25.8 15.6 31.7 28.1 4.5 9.5 5.8 15 5.9 24.7.2 14.2-6.4 31.6-15.1 40.3-8.8 8.8-23.4 14.7-38.4 15.6-24.4 1.3-47.6-14.9-55.7-39-2.6-7.6-3.1-20.1-1.2-29.1 2-9.8 8.5-22.8 14.2-28.4 4.6-4.6 13.3-9.5 22.6-12.6 10.8-3.6 25-3.5 36 .4zM377.4 286.4c-7.7 3.2-17.9 9.5-21.3 13-4.7 4.9-4.8 7.2-.4 15.6l3.9 7.3-4.1 6.2c-2.3 3.4-5 8.2-6.1 10.8l-1.9 4.7-7.6-.1c-13.5-.2-15.2 2.3-15.3 22.1 0 19.6 1.8 22.2 15 22.1l7.4-.1 3.4 6.8c1.9 3.7 4.8 8.5 6.4 10.7l3 3.9-3.9 7.1c-3.9 7.1-4.2 9.6-1.9 14 2 3.7 16.8 13 25.6 16 6.6 2.2 9.6.7 14.4-7.4l4-6.7 12.7.1h12.7l3.6 6.2c3.8 6.7 7.5 9.4 11.9 8.6 4.3-.7 16.3-6.9 22.1-11.2 9.1-6.8 9.8-9.8 4.5-19.1-1.9-3.4-3.5-6.7-3.5-7.3 0-.5 1.1-2.4 2.4-4.2 1.4-1.8 4.1-6.4 6.2-10.4l3.7-7.2 7.3.2c12.5.3 14.4-2.3 15-19.6.4-13.1-.7-19.2-4.2-22.3-2.2-1.9-3.6-2.2-10.5-2.2H474l-2.7-5.8c-1.5-3.1-4.4-8-6.4-10.7l-3.7-5.1 3.5-5.8c4.1-7.1 4.9-10.5 3.1-13.9-3-5.8-22.9-17.6-30.2-17.9-4.4-.2-6.7 1.8-11 9.2l-3.2 5.5h-12.8l-12.7.1-4-6.8c-3-5.1-4.7-6.9-6.7-7.4-1.5-.3-3.2-.7-3.7-.9-.6-.1-3.4.7-6.1 1.9zm43.5 53.5c10.1 3.8 14.7 9.3 17.2 20.5 3.1 14.1-6.2 28.8-20.6 32.7-8.6 2.4-21.2-1-27.5-7.2-4-4-7.2-13.1-7.2-20.4-.1-19.1 19.9-32.5 38.1-25.6z"/></svg>