<?xml version="1.0" encoding="us-ascii" standalone="no"?><svg xmlns="http://www.w3.org/2000/svg" xmlns:xlink="http://www.w3.org/1999/xlink" contentStyleType="text/css" height="537px" preserveAspectRatio="none" style="width:579px;height:537px;background:#FFFFFF;" version="1.1" viewBox="0 0 579 537" width="579px" zoomAndPan="magnify"><defs/><g><!--entity Cloudflare--><g id="elem_Cloudflare"><polygon fill="#F1F1F1" points="295.5,256.53,305.5,246.53,405.5,246.53,405.5,285.5979,395.5,295.5979,295.5,295.5979,295.5,256.53" style="stroke:#181818;stroke-width:0.5;"/><line style="stroke:#181818;stroke-width:0.5;" x1="395.5" x2="405.5" y1="256.53" y2="246.53"/><line style="stroke:#181818;stroke-width:0.5;" x1="295.5" x2="395.5" y1="256.53" y2="256.53"/><line style="stroke:#181818;stroke-width:0.5;" x1="395.5" x2="395.5" y1="256.53" y2="295.5979"/><text fill="#000000" font-family="sans-serif" font-size="14" lengthAdjust="spacing" textLength="70" x="310.5" y="281.4959">Cloudflare</text></g><!--entity Mastodon--><g id="elem_Mastodon"><polygon fill="#F1F1F1" points="16,16,26,6,123,6,123,45.0679,113,55.0679,16,55.0679,16,16" style="stroke:#181818;stroke-width:0.5;"/><line style="stroke:#181818;stroke-width:0.5;" x1="113" x2="123" y1="16" y2="6"/><line style="stroke:#181818;stroke-width:0.5;" x1="16" x2="113" y1="16" y2="16"/><line style="stroke:#181818;stroke-width:0.5;" x1="113" x2="113" y1="16" y2="55.0679"/><text fill="#000000" font-family="sans-serif" font-size="14" lengthAdjust="spacing" textLength="67" x="31" y="40.9659">Mastodon</text></g><!--entity ttntm.me--><g id="elem_ttntm.me"><polygon fill="#F1F1F1" points="299.5,365.6,309.5,355.6,401.5,355.6,401.5,394.6679,391.5,404.6679,299.5,404.6679,299.5,365.6" style="stroke:#181818;stroke-width:0.5;"/><line style="stroke:#181818;stroke-width:0.5;" x1="391.5" x2="401.5" y1="365.6" y2="355.6"/><line style="stroke:#181818;stroke-width:0.5;" x1="299.5" x2="391.5" y1="365.6" y2="365.6"/><line style="stroke:#181818;stroke-width:0.5;" x1="391.5" x2="391.5" y1="365.6" y2="404.6679"/><text fill="#000000" font-family="sans-serif" font-size="14" lengthAdjust="spacing" textLength="62" x="314.5" y="390.5659">ttntm.me</text></g><!--entity Git--><g id="elem_Git"><ellipse cx="286.5" cy="154.53" fill="#F1F1F1" rx="8" ry="8" style="stroke:#181818;stroke-width:0.5;"/><text fill="#000000" font-family="sans-serif" font-size="14" lengthAdjust="spacing" textLength="19" x="277" y="186.4959">Git</text></g><!--entity Make--><g id="elem_Make"><ellipse cx="375.5" cy="154.53" fill="#F1F1F1" rx="8" ry="8" style="stroke:#181818;stroke-width:0.5;"/><text fill="#000000" font-family="sans-serif" font-size="14" lengthAdjust="spacing" textLength="36" x="357.5" y="186.4959">Make</text></g><!--entity Manual_HTTP--><g id="elem_Manual_HTTP"><ellipse cx="490.5" cy="154.53" fill="#F1F1F1" rx="8" ry="8" style="stroke:#181818;stroke-width:0.5;"/><text fill="#000000" font-family="sans-serif" font-size="14" lengthAdjust="spacing" textLength="91" x="445" y="186.4959">Manual_HTTP</text></g><!--entity webmention.io--><g id="elem_webmention.io"><ellipse cx="166.5" cy="154.53" fill="#F1F1F1" rx="8" ry="8" style="stroke:#181818;stroke-width:0.5;"/><text fill="#000000" font-family="sans-serif" font-size="14" lengthAdjust="spacing" textLength="100" x="116.5" y="186.4959">webmention.io</text></g><!--entity brid.gy--><g id="elem_brid.gy"><ellipse cx="166.5" cy="30.53" fill="#F1F1F1" rx="8" ry="8" style="stroke:#181818;stroke-width:0.5;"/><text fill="#000000" font-family="sans-serif" font-size="14" lengthAdjust="spacing" textLength="48" x="142.5" y="62.4959">brid.gy</text></g><!--entity Raindrop--><g id="elem_Raindrop"><ellipse cx="485.5" cy="30.53" fill="#F1F1F1" rx="8" ry="8" style="stroke:#181818;stroke-width:0.5;"/><text fill="#000000" font-family="sans-serif" font-size="14" lengthAdjust="spacing" textLength="62" x="454.5" y="62.4959">Raindrop</text></g><!--entity EchoFeed--><g id="elem_EchoFeed"><ellipse cx="445.5" cy="380.14" fill="#F1F1F1" rx="8" ry="8" style="stroke:#181818;stroke-width:0.5;"/><text fill="#000000" font-family="sans-serif" font-size="14" lengthAdjust="spacing" textLength="64" x="413.5" y="412.1059">EchoFeed</text></g><!--entity webmention.app--><g id="elem_webmention.app"><ellipse cx="445.5" cy="496.67" fill="#F1F1F1" rx="8" ry="8" style="stroke:#181818;stroke-width:0.5;"/><text fill="#000000" font-family="sans-serif" font-size="14" lengthAdjust="spacing" textLength="114" x="388.5" y="528.6359">webmention.app</text></g><!--link Cloudflare to ttntm.me--><g id="link_Cloudflare_ttntm.me"><path d="M350.5,296.1 C350.5,313.73 350.5,329.57 350.5,347.19 " fill="none" id="Cloudflare-to-ttntm.me" style="stroke:#181818;stroke-width:1.0;"/><polygon fill="#181818" points="350.5,355.19,353.5,347.19,347.5,347.19,350.5,355.19" style="stroke:#181818;stroke-width:1.0;"/></g><!--link Git to Cloudflare--><g id="link_Git_Cloudflare"><path d="M290.9,163.41 C300.33,180.29 318.9177,213.5463 333.4177,239.4963 " fill="none" id="Git-to-Cloudflare" style="stroke:#181818;stroke-width:1.0;"/><polygon fill="#181818" points="337.32,246.48,336.0366,238.0329,330.7988,240.9596,337.32,246.48" style="stroke:#181818;stroke-width:1.0;"/></g><!--link Make to Cloudflare--><g id="link_Make_Cloudflare"><path d="M373.78,163.41 C370.1,180.29 363.0148,212.7138 357.3548,238.6638 " fill="none" id="Make-to-Cloudflare" style="stroke:#181818;stroke-width:1.0;"/><polygon fill="#181818" points="355.65,246.48,360.2859,239.3031,354.4237,238.0245,355.65,246.48" style="stroke:#181818;stroke-width:1.0;"/></g><!--link Manual_HTTP to Cloudflare--><g id="link_Manual_HTTP_Cloudflare"><path d="M481.74,162.7 C461.75,179.06 418.1816,214.694 386.0016,241.024 " fill="none" id="Manual_HTTP-to-Cloudflare" style="stroke:#181818;stroke-width:1.0;"/><polygon fill="#181818" points="379.81,246.09,387.9013,243.3458,384.1018,238.7022,379.81,246.09" style="stroke:#181818;stroke-width:1.0;"/></g><!--link webmention.io to Cloudflare--><g id="link_webmention.io_Cloudflare"><path d="M175.37,161.06 C199.64,176.16 261.3984,214.6021 305.1884,241.8621 " fill="none" id="webmention.io-to-Cloudflare" style="stroke:#181818;stroke-width:1.0;"/><polygon fill="#181818" points="311.98,246.09,306.7739,239.3153,303.603,244.409,311.98,246.09" style="stroke:#181818;stroke-width:1.0;"/></g><!--link brid.gy to webmention.io--><g id="link_brid.gy_webmention.io"><path d="M166.5,39.92 C166.5,62.42 166.5,115.91 166.5,137.73 " fill="none" id="brid.gy-to-webmention.io" style="stroke:#181818;stroke-width:1.0;"/><polygon fill="#181818" points="166.5,145.73,169.5,137.73,163.5,137.73,166.5,145.73" style="stroke:#181818;stroke-width:1.0;"/></g><!--link Mastodon to brid.gy--><g id="link_Mastodon_brid.gy"><path d="M123.3,30.53 C134.55,30.53 137.8,30.53 149.05,30.53 " fill="none" id="Mastodon-to-brid.gy" style="stroke:#181818;stroke-width:1.0;"/><polygon fill="#181818" points="157.05,30.53,149.05,27.53,149.05,33.53,157.05,30.53" style="stroke:#181818;stroke-width:1.0;"/></g><!--link Raindrop to Make--><g id="link_Raindrop_Make"><path d="M473.2623,45.1109 C453.6023,66.9109 408.0275,117.4588 388.0175,139.6488 " fill="none" id="Raindrop-Make" style="stroke:#181818;stroke-width:1.0;stroke-dasharray:1.0,3.0;"/><polygon fill="#181818" points="478.62,39.17,471.0344,43.1018,475.4901,47.1201,478.62,39.17" style="stroke:#181818;stroke-width:1.0;"/><polygon fill="#181818" points="382.66,145.59,390.2454,141.6579,385.7895,137.6398,382.66,145.59" style="stroke:#181818;stroke-width:1.0;"/></g><!--link Raindrop to ttntm.me--><g id="link_Raindrop_ttntm.me"><path d="M500.535,43.3973 C517.475,57.1273 547.89,84.99 561.5,122.53 C571.2,149.27 572.98,160.51 561.5,186.53 C527.27,264.13 451.4479,319.8311 400.3479,351.0311 " fill="none" id="Raindrop-ttntm.me" style="stroke:#181818;stroke-width:1.0;stroke-dasharray:1.0,3.0;"/><polygon fill="#181818" points="494.32,38.36,498.646,45.7279,502.4239,41.0667,494.32,38.36" style="stroke:#181818;stroke-width:1.0;"/><polygon fill="#181818" points="393.52,355.2,401.9112,353.5916,398.7846,348.4706,393.52,355.2" style="stroke:#181818;stroke-width:1.0;"/></g><!--link EchoFeed to webmention.app--><g id="link_EchoFeed_webmention.app"><path d="M445.5,389.37 C445.5,410.61 445.5,459 445.5,479.81 " fill="none" id="EchoFeed-to-webmention.app" style="stroke:#181818;stroke-width:1.0;"/><polygon fill="#181818" points="445.5,487.81,448.5,479.81,442.5,479.81,445.5,487.81" style="stroke:#181818;stroke-width:1.0;"/></g><!--link webmention.io to ttntm.me--><g id="link_webmention.io_ttntm.me"><path d="M177.2612,169.576 C193.6112,190.876 236.21,246 277.5,295.6 C294.5,316.03 309.0751,332.7307 323.7951,349.2907 " fill="none" id="webmention.io-ttntm.me" style="stroke:#181818;stroke-width:1.0;stroke-dasharray:1.0,3.0;"/><polygon fill="#181818" points="172.39,163.23,174.8815,171.4027,179.6409,167.7493,172.39,163.23" style="stroke:#181818;stroke-width:1.0;"/><polygon fill="#181818" points="329.11,355.27,326.0373,347.2976,321.5529,351.2838,329.11,355.27" style="stroke:#181818;stroke-width:1.0;"/></g><!--link ttntm.me to EchoFeed--><g id="link_ttntm.me_EchoFeed"><path d="M401.71,380.14 C413.23,380.14 416.75,380.14 428.26,380.14 " fill="none" id="ttntm.me-to-EchoFeed" style="stroke:#181818;stroke-width:1.0;"/><polygon fill="#181818" points="436.26,380.14,428.26,377.14,428.26,383.14,436.26,380.14" style="stroke:#181818;stroke-width:1.0;"/></g><!--SRC=[VL0zQyCm4DtrAsxJ93SOsg64B25fbq0fWGwb5CLtSKHidR7FbFxxEbQLs3Z9fdjVUdUwi8r0Mw4LUePqbZwQMMhI9wMqPoHeIDfA0VJ3ik0MzuMjAIARpit8FiuYNigafCwUkOSCE_nY0cCMYui4uCL9m4R16tkagx1lRV7zkjs-NM5_Q5UI5yS-SJpXbHuKrR2h7IRvRv0Dc14-Ikp_3pemjSiFSfByw_lCk5OmHqRfT-iyrdowONp2V6u-aKK8lqA38zsX1pVzE7TgEiCgE_2Q22TzRLLDJd8h50RDpul5PFK7]--></g></svg>