<?xml version="1.0" standalone="no"?>
<!DOCTYPE svg PUBLIC "-//W3C//DTD SVG 20010904//EN"
 "http://www.w3.org/TR/2001/REC-SVG-20010904/DTD/svg10.dtd">
<svg version="1.0" xmlns="http://www.w3.org/2000/svg"
 width="635.000000pt" height="635.000000pt" viewBox="0 0 635.000000 635.000000"
 preserveAspectRatio="xMidYMid meet">
<metadata>
Created by potrace 1.14, written by Peter Selinger 2001-2017
</metadata>
<g transform="translate(0.000000,635.000000) scale(0.100000,-0.100000)"
fill="#000000" stroke="none">
<path d="M10 3173 l0 -2513 725 0 c399 0 725 3 726 8 7 43 2 675 -5 680 -5 3
-154 5 -332 5 l-322 0 1 1820 2 1821 328 -1 c180 0 327 3 328 6 4 22 3 681 -1
682 -3 1 -330 2 -728 2 l-722 2 0 -2512z"/>
<path d="M4923 5682 l-23 -3 0 -343 0 -343 318 1 c174 1 324 -2 332 -5 13 -6
15 -217 14 -1816 -1 -994 -2 -1811 -3 -1814 -1 -3 -144 -6 -318 -7 -175 0
-324 -1 -330 -1 -10 -1 -13 -77 -13 -346 l0 -345 725 0 725 0 0 2510 c0 2001
-3 2510 -12 2511 -34 3 -1396 4 -1415 1z"/>
<path d="M1746 5280 c-2 -3 -3 -160 -2 -350 l1 -345 520 -1 520 0 3 -1607 2
-1607 398 2 397 3 1 1590 c1 875 2 1597 3 1605 1 13 65 15 516 14 459 0 515 2
516 15 1 22 1 663 0 676 -1 11 -2869 16 -2875 5z"/>
</g>
</svg>
